<svg version="1.1" id="Layer_1" xmlns="http://www.w3.org/2000/svg" xmlns:xlink="http://www.w3.org/1999/xlink" x="0px" y="0px"
	 width="100%" viewBox="0 0 1024 1024" enable-background="new 0 0 1024 1024" xml:space="preserve">
<path fill="#000000" opacity="1.000000" stroke="none" 
	d="
M430.974365,676.335083 
	C377.648651,676.335388 324.818146,676.354553 271.987671,676.326965 
	C242.707199,676.311646 214.562012,653.099731 208.316086,624.369446 
	C205.823517,612.903931 204.822479,601.406799 204.826233,589.722046 
	C204.860046,484.394775 204.788635,379.067474 204.852859,273.740265 
	C204.865494,253.014038 211.283813,234.799103 227.240829,220.721527 
	C239.110123,210.250229 253.289276,205.643173 268.808838,204.734512 
	C274.289825,204.413589 279.810699,204.830368 285.303192,204.630951 
	C289.679382,204.472076 291.272766,206.490814 291.230530,210.631836 
	C291.150635,218.463333 291.089661,226.300888 291.301727,234.128326 
	C291.798218,252.451752 304.917786,266.930603 323.148743,267.462860 
	C337.062042,267.869080 351.567413,260.439087 356.125763,243.025253 
	C358.585022,233.630249 357.598145,224.167786 357.685944,214.715347 
	C357.771332,205.521927 358.507782,204.678589 367.625916,204.678314 
	C425.456146,204.676620 483.286346,204.678314 541.116577,204.681793 
	C548.436890,204.682236 548.885620,205.200699 549.023376,212.675903 
	C549.203979,222.477844 547.952271,232.396011 550.416138,242.035995 
	C554.569458,258.286041 568.002014,267.750427 582.782959,267.485229 
	C600.082520,267.174866 613.045227,253.987991 614.863831,237.658463 
	C615.741882,229.774490 614.959473,222.054825 615.051147,214.262009 
	C615.142883,206.459259 617.060913,204.710968 624.901123,204.677429 
	C637.873657,204.621933 650.800781,204.240433 663.448608,208.407166 
	C686.661865,216.054626 705.240662,240.404099 705.295349,264.635986 
	C705.426208,322.632568 705.320312,380.629639 705.365173,438.626495 
	C705.369446,444.110748 703.484558,448.333740 698.540161,450.990509 
	C694.341797,453.246399 690.408997,452.319061 686.820740,449.741791 
	C682.595459,446.707031 681.829163,442.161621 681.835571,437.296509 
	C681.880188,403.631744 681.038574,369.938934 682.162964,336.311310 
	C683.001343,311.236298 668.802673,299.829224 645.853088,299.929626 
	C517.529175,300.490814 389.201508,300.188965 260.875122,300.195526 
	C245.482834,300.196320 235.903519,306.134735 231.288986,318.503998 
	C229.942505,322.113190 229.327393,325.884521 229.327545,329.747742 
	C229.331070,420.409515 229.086075,511.072479 229.532196,601.732056 
	C229.627853,621.174194 237.120956,637.883057 255.570984,647.465637 
	C264.419586,652.061401 273.865936,653.205750 283.672089,650.794800 
	C288.634705,649.574646 291.701355,646.493286 293.679260,641.894348 
	C303.151306,619.870056 315.213013,599.279968 331.340302,581.578735 
	C353.389862,557.377197 380.447083,541.327454 413.365753,536.868591 
	C435.742584,533.837585 457.031189,538.783875 477.510406,547.671204 
	C483.770538,550.388000 489.955963,553.295227 496.062500,556.341919 
	C500.809692,558.710388 501.735779,561.220215 499.682037,566.146301 
	C492.419830,583.565491 486.937531,601.514038 484.803253,620.275696 
	C483.415802,632.472107 482.533417,644.732117 483.987823,657.101868 
	C484.896240,664.828186 485.465393,672.619507 486.205994,680.381165 
	C486.885040,687.497803 482.651367,690.636719 475.869690,688.374084 
	C468.451691,685.898987 461.027618,683.377075 453.810669,680.382812 
	C446.594635,677.388794 439.289215,675.636841 430.974365,676.335083 
z"/>
<path fill="#000000" opacity="1.000000" stroke="none" 
	d="
M752.463379,797.626892 
	C734.005371,806.616089 714.858521,812.129272 694.868042,814.154236 
	C655.353333,818.156921 618.421204,810.171753 584.724670,788.765442 
	C548.205505,765.565979 523.374573,733.101746 511.556030,691.635864 
	C497.294891,641.599915 504.424500,594.306763 532.865479,550.296387 
	C554.209167,517.268494 583.612976,494.568298 620.296326,481.514832 
	C647.000305,472.012390 674.694153,469.053406 702.854797,474.179657 
	C766.926331,485.842987 811.277466,522.118896 836.406738,581.975220 
	C845.749878,604.229919 849.365479,627.716064 848.125244,651.697571 
	C845.927856,694.187073 830.013184,731.063477 800.875183,762.152710 
	C787.045471,776.908386 770.819275,788.405884 752.463379,797.626892 
M647.544128,590.955566 
	C688.872192,632.294617 730.197327,673.636597 771.540039,714.960999 
	C773.065247,716.485535 774.622498,718.049683 776.407104,719.228516 
	C780.365479,721.843445 785.274658,720.940125 787.797913,716.946899 
	C800.739807,696.465149 808.557556,674.263855 809.746094,649.928711 
	C810.558594,633.293213 808.452454,616.927185 802.439331,601.462158 
	C782.426575,549.991333 745.623230,518.578918 690.253235,511.644958 
	C661.258606,508.013977 633.653198,514.463806 608.297302,529.474426 
	C598.307129,535.388611 597.512024,540.903442 605.710632,549.126831 
	C619.466858,562.924683 633.273499,576.672424 647.544128,590.955566 
M720.305115,718.195679 
	C672.994629,670.804749 625.690491,623.407410 578.367249,576.029236 
	C570.490540,568.143433 565.977783,568.734253 560.609985,578.228271 
	C545.041504,605.764160 539.783997,635.290039 545.500061,666.259888 
	C553.122437,707.558594 575.468140,739.020081 611.895325,760.099915 
	C633.944946,772.859680 657.906067,777.821045 683.323364,776.735046 
	C704.568909,775.827271 724.286682,770.129395 742.462158,759.199341 
	C750.008667,754.661072 750.635986,748.719299 744.452148,742.398438 
	C736.647827,734.421265 728.692444,726.591858 720.305115,718.195679 
z"/>
<path fill="#000000" opacity="1.000000" stroke="none" 
	d="
M558.907776,469.713989 
	C546.031311,496.824310 525.056458,513.210693 495.911530,517.970642 
	C454.051086,524.807373 413.180573,500.063049 402.276672,457.141785 
	C393.914490,424.225464 402.185059,395.379272 427.378418,372.357941 
	C441.781494,359.196655 459.147705,352.182129 479.023285,351.537598 
	C503.793396,350.734467 525.629395,357.841736 542.690063,375.964966 
	C566.953430,401.739410 572.254517,431.899933 560.698669,465.182556 
	C560.207703,466.596710 559.617493,467.976379 558.907776,469.713989 
z"/>
<path fill="#000000" opacity="1.000000" stroke="none" 
	d="
M310.746826,242.955353 
	C308.090179,238.746399 308.157471,234.337265 308.154633,230.044067 
	C308.142822,212.233109 308.225830,194.421417 308.404144,176.611282 
	C308.492157,167.820267 315.812775,160.694321 324.422028,160.712128 
	C332.695831,160.729263 340.140961,167.664932 340.246704,176.310242 
	C340.484985,195.789917 340.440826,215.275711 340.254364,234.756546 
	C340.186462,241.848831 335.144684,247.801941 328.405731,249.826721 
	C322.182678,251.696503 315.629944,249.251343 310.746826,242.955353 
z"/>
<path fill="#000000" opacity="1.000000" stroke="none" 
	d="
M598.349731,216.000031 
	C598.347046,222.329086 598.434692,228.159943 598.320801,233.986862 
	C598.141541,243.153061 591.013977,250.325775 582.233643,250.331360 
	C572.978210,250.337234 566.627197,243.776443 566.600769,233.997101 
	C566.550415,215.344147 566.542419,196.690842 566.598145,178.037918 
	C566.628662,167.857407 573.002502,160.818466 582.071716,160.727249 
	C591.084412,160.636597 598.299133,168.266449 598.332397,178.027237 
	C598.375000,190.518051 598.347168,203.009109 598.349731,216.000031 
z"/>
</svg>